<svg width="24" height="24" viewBox="0 0 24 24" fill="none" xmlns="http://www.w3.org/2000/svg">
<path fill-rule="evenodd" clip-rule="evenodd" d="M12 20C16.4183 20 20 16.4183 20 12C20 7.58172 16.4183 4 12 4C7.58172 4 4 7.58172 4 12C4 16.4183 7.58172 20 12 20ZM12 24C18.6274 24 24 18.6274 24 12C24 5.37258 18.6274 0 12 0C5.37258 0 0 5.37258 0 12C0 18.6274 5.37258 24 12 24Z" fill="#C8C8C8"/>
<path fill-rule="evenodd" clip-rule="evenodd" d="M16.0002 0.686289C14.7207 0.233951 13.3684 0 12.0002 0V3.93696C13.4444 3.93696 14.8622 4.32489 16.1053 5.06021C17.3483 5.79553 18.3711 6.85124 19.0666 8.117C19.7621 9.38277 20.1049 10.8121 20.0591 12.2557C20.0133 13.6992 19.5807 15.104 18.8063 16.3231C18.0319 17.5422 16.9443 18.531 15.6571 19.186C14.37 19.8411 12.9305 20.1384 11.4891 20.0468C10.0477 19.9553 8.6574 19.4783 7.46343 18.6656C6.26947 17.853 5.31569 16.7346 4.70178 15.4273L1.13818 17.1007C1.71979 18.3393 2.50636 19.4639 3.45964 20.4297C4.00389 20.9811 4.60247 21.4807 5.24827 21.9203C7.02522 23.1297 9.0944 23.8396 11.2396 23.9759C13.3847 24.1121 15.5271 23.6697 17.4427 22.6948C19.3584 21.7199 20.9771 20.2483 22.1295 18.4339C23.282 16.6195 23.926 14.5289 23.9941 12.3805C24.0623 10.2321 23.5521 8.10484 22.517 6.22104C21.4818 4.33724 19.9597 2.76605 18.1097 1.6717C17.4373 1.27398 16.7306 0.944541 16.0002 0.686289Z" fill="#FF7E3F"/>
</svg>
